<svg width="10" height="10" viewBox="0 0 10 10" fill="none" xmlns="http://www.w3.org/2000/svg">
    <path fill-rule="evenodd" clip-rule="evenodd" d="M3.43543 2.0004H5.00003C5.55233 2.0004 6.00003 1.5527 6.00003 1.0004C6.00003 0.4481 5.55233 0 5.00003 0C3.90083 0 2.14533 0 1.04613 0L1.01923 0.0014L1.00003 0.0004C0.734827 0.0004 0.480427 0.1058 0.292927 0.2933C0.105427 0.4808 2.67029e-05 0.7352 2.67029e-05 1.0004C2.67029e-05 2.1102 2.67029e-05 3.8906 2.67029e-05 5.0004C2.67029e-05 5.2656 0.105427 5.52 0.292927 5.7075C0.480427 5.895 0.734827 6.0004 1.00003 6.0004C1.26523 6.0004 1.51963 5.895 1.70713 5.7075C1.89463 5.52 2.00003 5.2656 2.00003 5.0004V3.5191L7.78473 9.3038C7.98053 9.4996 8.24613 9.6096 8.52303 9.6096C8.79993 9.6096 9.06543 9.4996 9.26123 9.3038C9.45703 9.108 9.56763 8.8419 9.56763 8.565C9.56763 8.2881 9.45763 8.0226 9.26183 7.8268L3.43543 2.0004Z" fill="#BDBDBD"/>
</svg>
