<svg width="11" height="10" viewBox="0 0 11 10" fill="none" xmlns="http://www.w3.org/2000/svg">
    <path fill-rule="evenodd" clip-rule="evenodd" d="M10.7071 0.292875C11.0976 0.683375 11.0976 1.31657 10.7071 1.70708L7.4142 4.99997L10.7078 8.29358C11.0979 8.68367 11.0979 9.31627 10.7078 9.70638L10.7071 9.70708C10.3166 10.0976 9.6834 10.0976 9.2929 9.70708L6 6.41417L2.7071 9.70708C2.3166 10.0976 1.6834 10.0976 1.2929 9.70708L1.2922 9.70638C0.902097 9.31627 0.902097 8.68367 1.2922 8.29358L4.5858 4.99997L1.2745 1.68868C0.894097 1.30827 0.894097 0.691575 1.2745 0.311275L1.2752 0.310575C1.4674 0.118375 1.7281 0.010375 2 0.010375C2.2718 0.010375 2.5326 0.118275 2.7248 0.310575L6 3.58577L9.2929 0.292875C9.6834 -0.097625 10.3166 -0.097625 10.7071 0.292875Z" fill="#BDBDBD"/>
</svg>
